<svg width="24" height="25" viewBox="0 0 24 25" fill="none" xmlns="http://www.w3.org/2000/svg">
<path fill-rule="evenodd" clip-rule="evenodd" d="M7.4222 19.9297C7.8442 19.9297 8.1872 20.2727 8.1872 20.6947C8.1872 21.1167 7.8442 21.4587 7.4222 21.4587C7.0002 21.4587 6.6582 21.1167 6.6582 20.6947C6.6582 20.2727 7.0002 19.9297 7.4222 19.9297Z" stroke="white" stroke-width="1.5" stroke-linecap="round" stroke-linejoin="round"/>
<path fill-rule="evenodd" clip-rule="evenodd" d="M18.6747 19.9297C19.0967 19.9297 19.4397 20.2727 19.4397 20.6947C19.4397 21.1167 19.0967 21.4587 18.6747 21.4587C18.2527 21.4587 17.9097 21.1167 17.9097 20.6947C17.9097 20.2727 18.2527 19.9297 18.6747 19.9297Z" stroke="white" stroke-width="1.5" stroke-linecap="round" stroke-linejoin="round"/>
<path d="M2.75 3.35944L4.83 3.71944L5.793 15.1924C5.871 16.1274 6.652 16.8454 7.59 16.8454H18.502C19.398 16.8454 20.158 16.1874 20.287 15.2994L21.236 8.74144C21.353 7.93244 20.726 7.20844 19.909 7.20844H5.164" stroke="white" stroke-width="1.5" stroke-linecap="round" stroke-linejoin="round"/>
<path d="M14.1255 10.9044H16.8985" stroke="white" stroke-width="1.5" stroke-linecap="round" stroke-linejoin="round"/>
</svg>
